<?xml version="1.0" encoding="utf-8"?>
<!-- Generator: Adobe Illustrator 26.5.0, SVG Export Plug-In . SVG Version: 6.00 Build 0)  -->
<svg version="1.1" id="Layer_1" xmlns="http://www.w3.org/2000/svg" xmlns:xlink="http://www.w3.org/1999/xlink" x="0px" y="0px"
	 width="504px" height="72px" viewBox="0 0 504 72" style="enable-background:new 0 0 504 72;" xml:space="preserve">
<style type="text/css">
	.Drop_x0020_Shadow{fill:none;}
	.Round_x0020_Corners_x0020_2_x0020_pt{fill:#FFFFFF;stroke:#000000;stroke-miterlimit:10;}
	.Live_x0020_Reflect_x0020_X{fill:none;}
	.Bevel_x0020_Soft{fill:url(#SVGID_1_);}
	.Dusk{fill:#FFFFFF;}
	.Foliage_GS{fill:#FFDD00;}
	.Pompadour_GS{fill-rule:evenodd;clip-rule:evenodd;fill:#44ADE2;}
	.st0{fill-rule:evenodd;clip-rule:evenodd;}
</style>
<linearGradient id="SVGID_1_" gradientUnits="userSpaceOnUse" x1="72" y1="-144" x2="72.7071" y2="-143.2929">
	<stop  offset="0" style="stop-color:#DEDFE3"/>
	<stop  offset="0.1738" style="stop-color:#D8D9DD"/>
	<stop  offset="0.352" style="stop-color:#C9CACD"/>
	<stop  offset="0.5323" style="stop-color:#B4B5B8"/>
	<stop  offset="0.7139" style="stop-color:#989A9C"/>
	<stop  offset="0.8949" style="stop-color:#797C7E"/>
	<stop  offset="1" style="stop-color:#656B6C"/>
</linearGradient>
<g>
	<path class="st0" d="M177.7,48.2h-2.1V23.7c-1.2-1.1-2.3-2.2-3.5-3.3h-17.8c-1.2,1.2-2.6,2.5-3.8,3.7V9.5h-10.1v7.3h2.6v31.4h-2
		c-0.2,0.2-0.4,0.3-0.6,0.5v7.2c2.2,0,7.6,0,10.2,0c0-1.8,0-5.5,0-8V28h17.3v27.8h10.5v-6.9C178.2,48.7,177.9,48.4,177.7,48.2z"/>
	<path class="st0" d="M136.7,28v-6.9c-0.2-0.2-0.5-0.5-0.7-0.7h-10.4v-5.1c-0.2-0.2-0.3-0.4-0.5-0.6h-7.2v5.7h-2.8V28h2.8v24.5
		l3.3,3.3c1.2,0,13,0,15.4,0v-7.7h-11.1V28H136.7z"/>
	<path class="st0" d="M85.7,48.2h-2V23.2c-1.1-1.1-1.7-1.7-2.7-2.7H65.3c-1.3,1.3-2.6,2.6-4,4v-4h-7.4v10.1h6.4
		c0.3-0.2,0.6-0.4,1-0.7V28h14.7v20.1H62.6c2.4-2.5,4.8-4.9,7.2-7.4V37h-6.5c-1.1,1-2,1.9-3.1,3c-3,3-5.9,6-8.9,9v3.3
		c1.2,1.2,2.3,2.3,3.3,3.5H72c1.3-1.3,2.9-2.9,4.2-4.2v4.2c0.7,0,7.4,0,10.1,0v-6.9C86.1,48.6,85.9,48.5,85.7,48.2z"/>
	<path class="st0" d="M111.6,28v-6.9c-0.2-0.2-0.5-0.5-0.6-0.7h-6.5c-1.4,1.3-2.7,2.6-4.1,4v-4h-6.9c-0.2,0.2-0.5,0.4-0.7,0.5
		c0,9.1,0,18.2,0,27.3H90v7.7h21.5v-7.5c-1.8,0-8.3-0.1-11-0.1V28H111.6z"/>
	<path class="st0" d="M249.2,19.7h-25.8c-1.2,1.2-2.3,2.4-3.5,3.6v19.9c0,2.9,0.1,5.6,0.1,8.5c1.7,1.6,2.1,2,3.6,3.5h25.4
		c1.2-1.2,2.4-2.3,3.6-3.5V23.1L249.2,19.7z M245.1,47.4h-17.4V27.3h17.4V47.4z"/>
	<path class="st0" d="M274.4,27.3h3.3v-7.5h-7.5c-1.3,1.2-2.6,2.5-3.8,3.7c0-1.1,0-2.6,0-3.7h-7.4v27.7h-2c-0.2,0.2-0.4,0.3-0.6,0.5
		v7.2h21.2v-7.7h-11.1V27.3C268.4,27.4,273.3,27.3,274.4,27.3z"/>
	<path class="st0" d="M295.1,37.7c0.2,0.2,0.3,0.4,0.5,0.6h6.3c3.8-3.9,7.7-7.6,11.5-11.5v-4.3c-1-1-1.8-1.7-2.8-2.7
		c0,0-7.4,0-26.1,0l-3.3,3.5v28.2l3.7,3.7h26.2v-7.7h-22.2V27.3c4.6,0,9.1-0.1,13.7-0.1c-2.5,2.5-4.9,4.9-7.4,7.4V37.7z"/>
	<path class="st0" d="M375.2,45.3h-10.6V25.2h11.1v-7.8h-7.3c0,0-2.3,2.2-4,3.8v-3.8h-7.3c0,9.1-0.1,18.8-0.1,27.9h-2
		c-0.2,0.2-0.4,0.3-0.6,0.5v7h21.4V46C375.6,45.8,375.3,45.5,375.2,45.3z"/>
	<path class="st0" d="M408.4,17.4c-8.3,0-16.6-0.1-24.9-0.1c-1.4,1.4-2.8,2.7-4.2,4.1v27.9c1.2,1.2,2.5,2.5,3.7,3.7h25.3
		c1.3-1.2,2.6-2.5,3.8-3.8V21.2C410.9,19.9,409.6,18.7,408.4,17.4z M404.3,45.3h-17.4V25.2h17.4V45.3z"/>
	<path class="st0" d="M453.7,25.2v-7.8h-10.3v27.9h-17.4c0-9.2-0.1-18.7-0.1-27.9h-10.4v7.8h2.8v24.1l3.7,3.7h17.2
		c1.4-1.4,2.9-2.8,4.3-4.2V53h10.1v-7.7h-2.6V25.2H453.7z"/>
	<path class="st0" d="M489,17.4h-17.7c-1.2,1.2-2.5,2.4-3.7,3.6v-3.6h-10.3V25h2.6v31.4c-1.2,0-2.6,0-2.6,0v7.4h10.4
		c0-1.8,0-12.2,0-14.9L472,53h17.4c1.3-1.3,2.2-2.2,3.6-3.6v-28L489,17.4z M485.2,45.3h-17.4V25.2h17.4V45.3z"/>
	<path class="st0" d="M11.1,9.4c12.3,0,24.5,0,36.8,0c0,3.3,0,6.7,0,10c-2.3,0-4.6,0-7,0c0-0.9,0-1.9,0-2.8c-6.7,0-13.4,0-20.2,0
		c0,4.1,0,8.2,0,12.4c7.3,0,14.5,0,21.8,0c0,2.4,0,4.8,0,7.2c-7.3,0-14.5,0-21.8,0c0,4.1,0,8.2,0,12.4c6.7,0,13.4,0,20.1,0
		c0-0.9,0-1.8,0-2.7c2.3,0,4.7,0,7,0c0,3.4,0,6.7,0,10.1c-12.3,0-24.6,0-36.8,0c0-2.4,0-4.9,0-7.3c0.9,0,1.8,0,2.7,0
		c0-10.7,0-21.3,0-32c-0.9,0-1.8,0-2.7,0C11.1,14.2,11.1,11.8,11.1,9.4z"/>
	<path class="st0" d="M209.6,9.2c2.3,0,4.6,0,7,0c0,3.4,0,6.8,0,10.1c-2.3,0-4.6,0-7,0c0-1,0-1.9,0-2.9c-6.7,0-13.4,0-20.2,0
		c0,10.6,0,21.3,0,31.9c6.7,0,13.4,0,20.2,0c0-0.9,0-1.8,0-2.7c2.3,0,4.6,0,6.9,0c0,2.3,0,4.6,0,6.9c-1,1-2,2-3,3
		c-9.3,0-18.7,0-28,0c-1-1.1-2-2.1-3-3.2c0-13.3,0-26.7,0-40c1.1-1.1,2.1-2.1,3.2-3.2c6.5,0,13,0,19.5,0c1.5,1.5,3,3,4.4,4.6
		C209.6,12.3,209.6,10.7,209.6,9.2z"/>
	<path class="st0" d="M344.1,8.2c2.3,0,4.6,0,6.9,0c0,3.3,0,6.7,0,10c-2.3,0-4.6,0-7,0c0-0.9,0-1.9,0-2.8c-6.7,0-13.4,0-20.2,0
		c0,10.7,0,21.3,0,32c6.7,0,13.4,0,20.2,0c0-4.1,0-8.2,0-12.3c-3.6,0-7.3,0-10.9,0c0-2.4,0-4.9,0-7.3c5.9,0,11.9,0,17.8,0
		c0,9,0,17.9,0,26.9c-2.3,0-4.6,0-6.9,0c0-1.4,0-2.9,0-4.3c-1.4,1.4-2.9,2.9-4.3,4.3c-6.6,0-13.3,0-19.9,0c-1-1.1-2.1-2.2-3.1-3.3
		c0-13.4,0-26.7,0-40.1c1.1-1.1,2.1-2.1,3.2-3.2c6.5,0,13,0,19.5,0.1c1.5,1.6,3.1,3.2,4.6,4.8C344.1,11.4,344.1,9.8,344.1,8.2z"/>
</g>
</svg>
