<?xml version="1.0" encoding="utf-8"?>
<!-- Generator: Adobe Illustrator 26.5.0, SVG Export Plug-In . SVG Version: 6.00 Build 0)  -->
<svg version="1.1" id="Layer_1" xmlns="http://www.w3.org/2000/svg" xmlns:xlink="http://www.w3.org/1999/xlink" x="0px" y="0px"
	 width="360px" height="360px" viewBox="0 0 360 360" style="enable-background:new 0 0 360 360;" xml:space="preserve">
<style type="text/css">
	.Drop_x0020_Shadow{fill:none;}
	.Round_x0020_Corners_x0020_2_x0020_pt{fill:#FFFFFF;stroke:#000000;stroke-miterlimit:10;}
	.Live_x0020_Reflect_x0020_X{fill:none;}
	.Bevel_x0020_Soft{fill:url(#SVGID_1_);}
	.Dusk{fill:#FFFFFF;}
	.Foliage_GS{fill:#FFDD00;}
	.Pompadour_GS{fill-rule:evenodd;clip-rule:evenodd;fill:#44ADE2;}
	.st0{fill-rule:evenodd;clip-rule:evenodd;}
</style>
<linearGradient id="SVGID_1_" gradientUnits="userSpaceOnUse" x1="0" y1="0" x2="0.7071" y2="0.7071">
	<stop  offset="0" style="stop-color:#DEDFE3"/>
	<stop  offset="0.1738" style="stop-color:#D8D9DD"/>
	<stop  offset="0.352" style="stop-color:#C9CACD"/>
	<stop  offset="0.5323" style="stop-color:#B4B5B8"/>
	<stop  offset="0.7139" style="stop-color:#989A9C"/>
	<stop  offset="0.8949" style="stop-color:#797C7E"/>
	<stop  offset="1" style="stop-color:#656B6C"/>
</linearGradient>
<path class="st0" d="M179.3,7.8C93.3,7.8,7,75.5,7,181.5C7,259.8,57.5,316,110.8,338.6c18.4,7.8,38.6,14.4,67.6,14.4
	c22.7,0,41.6-3.9,54.2-7.9c49.7-15.7,86.7-51.8,106.5-97.8c8.6-19.9,13-41.8,13-67.6C352.1,77.5,267.7,7.8,179.3,7.8z M190.9,67.6
	c30.1,53.3,60.2,106.6,90.3,159.8c-19-11.3-38.9-23-57.9-34.3c5.4-14.5,2.4-49.3-32.4-58.8V67.6z M211.8,211.2
	c21.2,12.8,37.4,22.4,58.4,34.7c-60.4,0.2-120.8,0.3-181.1,0.5c5.9-3.5,9.8-5.9,57.9-34.7C155.5,223.2,189.2,235.1,211.8,211.2z
	 M169.1,133.8c-22.8,2.4-44.7,31.3-33.8,59.3c-19.1,11.4-38.3,22.9-57.4,34.3c30.1-53.6,60.2-107.2,90.3-160.8
	C168.5,89,168.8,111.4,169.1,133.8z M42.7,245.4c-4.8-11.7-31.1-68.8,3.7-136.7C74.3,54.4,135.9,30.6,164,30
	c-40.1,71.3-80.3,142.7-120.4,214C43.3,244.5,43,244.9,42.7,245.4z M180.3,331.6c-62.8,0-105.7-37.4-123.7-63.5h246
	C276.9,304.7,232.9,331.6,180.3,331.6z M316.5,244.5C276,173,235.1,101.5,194.6,30c48.9,5.8,89.5,28.9,119.1,80.1
	C341.9,159.2,328.8,222.8,316.5,244.5z"/>
</svg>
